<?xml version="1.0" encoding="UTF-8"?>
<svg version="1.1" xmlns="http://www.w3.org/2000/svg" width="512" height="512">
<path d="M0 0 C1.64292778 -0.00935994 1.64292778 -0.00935994 3.31904602 -0.01890898 C6.99025987 -0.0348675 10.66081243 -0.02222286 14.33203125 -0.00964355 C16.96354561 -0.01506337 19.59505694 -0.02218523 22.2265625 -0.03088379 C28.63270663 -0.04866358 35.03866322 -0.04483152 41.44481468 -0.03323323 C46.65153924 -0.02419702 51.85821126 -0.02297571 57.06494141 -0.02732849 C57.80619294 -0.02794142 58.54744448 -0.02855436 59.31115818 -0.02918586 C60.8170306 -0.03046477 62.32290301 -0.03176163 63.82877541 -0.03307623 C77.94696453 -0.04448044 92.06504974 -0.03137085 106.18322182 -0.00987476 C118.295377 0.0079961 130.40737883 0.00489195 142.51953125 -0.0135498 C156.58744328 -0.03495936 170.65526426 -0.04338181 184.72319031 -0.03110075 C186.22350056 -0.02982656 187.72381082 -0.02856908 189.22412109 -0.02732849 C190.33137212 -0.02640284 190.33137212 -0.02640284 191.46099186 -0.02545848 C196.66102854 -0.02200583 201.86100743 -0.02783209 207.06103516 -0.0372467 C214.06081736 -0.04964127 221.06030498 -0.04080768 228.06005859 -0.01766968 C230.63117999 -0.01237425 233.20232574 -0.01391051 235.7734375 -0.02272034 C239.27897689 -0.03362578 242.78358283 -0.01997111 246.2890625 0 C247.31026688 -0.00892289 248.33147125 -0.01784577 249.38362122 -0.02703905 C255.12442268 0.03654397 258.72070708 0.47682034 263.14453125 4.50793457 C267.1440799 9.14867156 267.71459145 13.04162664 267.62554932 18.97409058 C267.62896702 19.81226181 267.63238472 20.65043304 267.63590598 21.5140034 C267.6424803 24.31490301 267.62051644 27.11483849 267.59863281 29.91564941 C267.59750424 31.92636085 267.59813839 33.93707394 267.60040283 35.94778442 C267.60155051 41.40194517 267.57803224 46.85575407 267.550107 52.30983305 C267.52510246 58.01131628 267.52275209 63.71280756 267.51800537 69.41433716 C267.50557284 80.20900197 267.47274736 91.00350475 267.43260741 101.79809821 C267.38789844 114.08818621 267.36590484 126.37828196 267.34582567 138.66843104 C267.30401508 163.94835539 267.2336575 189.2281359 267.14453125 214.50793457 C264.14453125 214.50793457 264.14453125 214.50793457 262.66162109 213.04602051 C262.14809082 212.3682959 261.63456055 211.69057129 261.10546875 210.99230957 C260.53006348 210.24231689 259.9546582 209.49232422 259.36181641 208.71960449 C258.7538623 207.90725342 258.1459082 207.09490234 257.51953125 206.25793457 C256.88708496 205.42818115 256.25463867 204.59842773 255.60302734 203.74353027 C253.77376399 201.33885495 251.95709432 198.92521162 250.14453125 196.50793457 C249.3659375 195.47539551 248.58734375 194.44285645 247.78515625 193.37902832 C246.40527816 191.54186505 245.02915375 189.70187807 243.65625 187.85949707 C240.32944867 183.406123 236.95261948 178.9906939 233.58203125 174.57043457 C232.55275513 173.22030273 232.55275513 173.22030273 231.50268555 171.84289551 C228.03081178 167.28985573 224.55694359 162.73834303 221.08203125 158.18762207 C214.52286827 149.59335273 207.99031785 140.98148872 201.51953125 132.32043457 C196.09362778 125.05951921 190.57547015 117.87773622 184.99389648 110.73596191 C181.81644315 106.66755338 178.67124713 102.58127004 175.58203125 98.44543457 C174.89496094 97.52762207 174.20789063 96.60980957 173.5 95.66418457 C172.1917948 93.91123299 170.88509364 92.1571457 169.58447266 90.39855957 C167.86273734 88.07458743 166.12930649 85.75968357 164.39453125 83.44543457 C163.57940063 82.33639771 163.57940063 82.33639771 162.74780273 81.20495605 C159.34737515 76.69179436 156.52328611 73.10229557 150.6796875 72.07434082 C149.86371094 72.07305176 149.04773438 72.0717627 148.20703125 72.07043457 C147.39363281 72.05109863 146.58023438 72.0317627 145.7421875 72.01184082 C140.93459113 72.92998329 137.95891978 75.43819973 135.0390625 79.27355957 C134.33127821 80.42667592 133.63841609 81.58902456 132.95703125 82.75793457 C132.55685791 83.4197876 132.15668457 84.08164063 131.74438477 84.7635498 C130.1961569 87.33631976 128.67121163 89.92231724 127.14453125 92.50793457 C126.0321979 94.37789616 124.91810009 96.24680036 123.80397034 98.11569214 C120.13399891 104.27229994 116.47623005 110.43600489 112.828125 116.60559082 C108.30119647 124.26033559 103.72905431 131.88757522 99.14453125 139.50793457 C95.76297997 138.0883645 94.03787214 136.4579147 91.83203125 133.55090332 C90.93097656 132.37624512 90.93097656 132.37624512 90.01171875 131.17785645 C89.39554687 130.35865723 88.779375 129.53945801 88.14453125 128.69543457 C86.91553535 127.08462718 85.68637312 125.47394669 84.45703125 123.86340332 C83.88114258 123.10615967 83.30525391 122.34891602 82.71191406 121.56872559 C77.98301321 115.22890962 77.98301321 115.22890962 71.14453125 111.50793457 C64.98800628 110.82387624 61.18963288 111.71343824 56.14453125 115.50793457 C53.73859129 118.00382294 51.69945494 120.71996793 49.64453125 123.50793457 C49.04705078 124.29684082 48.44957031 125.08574707 47.83398438 125.89855957 C45.92472326 128.42569812 44.0337534 130.96579106 42.14453125 133.50793457 C40.89536245 135.17522432 39.64536672 136.84189484 38.39453125 138.50793457 C36.51277864 141.01571199 34.63226893 143.52435568 32.75634766 146.03649902 C28.00472342 152.39353476 23.16165271 158.6735367 18.27563477 164.9276123 C12.72619374 172.03193131 7.25043021 179.19108079 1.78417969 186.35949707 C0.07570467 188.5981183 -1.63558133 190.83456549 -3.34765625 193.07043457 C-3.92443115 193.82381104 -4.50120605 194.5771875 -5.09545898 195.35339355 C-6.18589075 196.77755735 -7.27653058 198.20156187 -8.36743164 199.62536621 C-8.86750732 200.27884033 -9.36758301 200.93231445 -9.8828125 201.60559082 C-10.36991699 202.2399707 -10.85702148 202.87435059 -11.35888672 203.5279541 C-12.42117237 204.93335976 -13.46530897 206.35256599 -14.49658203 207.78088379 C-15.29491455 208.88134033 -15.29491455 208.88134033 -16.109375 210.00402832 C-16.58834229 210.67490479 -17.06730957 211.34578125 -17.56079102 212.0369873 C-17.98803467 212.5223999 -18.41527832 213.0078125 -18.85546875 213.50793457 C-19.51546875 213.50793457 -20.17546875 213.50793457 -20.85546875 213.50793457 C-20.94887866 187.14368138 -21.01943163 160.77945297 -21.06271744 134.41506767 C-21.08334931 122.17383164 -21.111482 109.93269839 -21.15722656 97.69152832 C-21.19707501 87.02307 -21.22289701 76.35468611 -21.23182273 65.68615544 C-21.23704081 60.03637233 -21.24931847 54.38680216 -21.27838898 48.73708725 C-21.30552643 43.42000336 -21.31391704 38.10322025 -21.30789948 32.78607368 C-21.30900045 30.83415785 -21.31696416 28.88223202 -21.33229065 26.93037605 C-21.35219241 24.2652565 -21.34740733 21.60127254 -21.33648682 18.93612671 C-21.34813818 18.16374125 -21.35978955 17.3913558 -21.37179399 16.59556472 C-21.31417998 11.39367947 -20.2440839 8.44322494 -16.85546875 4.50793457 C-11.60704202 -0.27458092 -6.74128456 -0.05890272 0 0 Z M47.58984375 43.41027832 C43.4647523 49.39723538 43.42844983 55.45728669 44.14453125 62.50793457 C45.91795558 69.15266371 50.59119595 73.68161416 56.14453125 77.50793457 C62.14340129 80.44855714 69.02736655 80.60677245 75.45703125 78.89074707 C81.58585986 76.18544382 86.38405917 71.09929762 89.31640625 65.11730957 C91.22258982 59.11103305 91.20891812 52.00501899 88.64453125 46.19543457 C85.15990987 40.2554572 79.70997295 35.59157774 73.14453125 33.50793457 C61.71008028 32.15157211 54.96635636 34.78147403 47.58984375 43.41027832 Z " fill="#24C485" transform="translate(132.85546875,143.4920654296875)"/>
<path d="M0 0 C1.18142578 -0.01891296 1.18142578 -0.01891296 2.38671875 -0.03820801 C3.22847656 -0.03011108 4.07023438 -0.02201416 4.9375 -0.01367188 C6.24654297 -0.01941223 6.24654297 -0.01941223 7.58203125 -0.02526855 C9.42449092 -0.02798678 11.26698924 -0.02063182 13.109375 -0.00390625 C15.92795934 0.01750565 18.74399485 -0.00370989 21.5625 -0.02929688 C23.35417229 -0.02665358 25.14584299 -0.02152857 26.9375 -0.01367188 C27.77925781 -0.0217688 28.62101563 -0.02986572 29.48828125 -0.03820801 C30.27589844 -0.02559937 31.06351563 -0.01299072 31.875 0 C32.90947266 0.00477356 32.90947266 0.00477356 33.96484375 0.00964355 C37.11129176 0.81981498 38.10548176 1.80522129 39.9375 4.51757812 C40.42666563 7.94733186 40.31332448 11.31224437 40.1875 14.76757812 C40.16945313 15.7034375 40.15140625 16.63929687 40.1328125 17.60351562 C40.08575673 19.90924828 40.02003713 22.21288757 39.9375 24.51757812 C41.08182999 24.51091629 42.22615997 24.50425446 43.40516663 24.49739075 C54.24626218 24.43629076 65.08732231 24.39146774 75.92855167 24.36214161 C81.50069986 24.3465574 87.07270786 24.32545305 92.64477539 24.29125977 C98.03294164 24.25840598 103.42097394 24.24067079 108.80923271 24.2329464 C110.85388735 24.22744922 112.89853557 24.21671615 114.9431324 24.20038795 C146.72093819 23.9569511 172.42748618 33.30715853 195.4375 55.58007812 C211.48924828 71.6576293 223.26881822 95.05979535 224.05775452 118.01683044 C224.05553391 119.24482864 224.05331329 120.47282684 224.05102539 121.73803711 C224.05117142 122.42180923 224.05131744 123.10558136 224.0514679 123.81007385 C224.05077755 126.04464009 224.04302677 128.2791204 224.03515625 130.51367188 C224.03328895 132.07308405 224.03186652 133.63249682 224.03086853 135.19190979 C224.02706796 139.27714688 224.01725891 143.36234788 224.00616455 147.4475708 C223.99589731 151.6238964 223.99135957 155.80022789 223.98632812 159.9765625 C223.97563423 168.15691752 223.95858765 176.33724332 223.9375 184.51757812 C224.52241211 184.49663086 225.10732422 184.47568359 225.70996094 184.45410156 C228.36896465 184.37077697 231.02769355 184.31886916 233.6875 184.26757812 C234.60789062 184.2340625 235.52828125 184.20054687 236.4765625 184.16601562 C243.13355606 184.06953746 243.13355606 184.06953746 246.54492188 185.97070312 C248.63119724 189.78627546 248.50998003 193.23129553 248.46875 197.51757812 C248.4725769 198.39027344 248.47640381 199.26296875 248.48034668 200.16210938 C248.4830649 202.00456905 248.47570994 203.84706737 248.45898438 205.68945312 C248.43757248 208.50803746 248.45878801 211.32407297 248.484375 214.14257812 C248.48173171 215.93425041 248.47660669 217.72592111 248.46875 219.51757812 C248.47684692 220.35933594 248.48494385 221.20109375 248.49328613 222.06835938 C248.4366813 225.60426235 248.25827742 227.93091087 246.54492188 231.06445312 C242.39726448 233.37595657 238.34314744 232.93711151 233.6875 232.76757812 C232.75164062 232.74953125 231.81578125 232.73148438 230.8515625 232.71289062 C228.54582985 232.66583486 226.24219055 232.60011525 223.9375 232.51757812 C223.94749275 233.78306236 223.94749275 233.78306236 223.95768738 235.07411194 C224.01821485 243.08970684 224.06368354 251.10522315 224.09293652 259.12099552 C224.10848215 263.24035079 224.12951278 267.35951462 224.16381836 271.47875977 C224.19681393 275.46641819 224.21443606 279.45389443 224.22213173 283.441679 C224.22760416 284.95045267 224.23828622 286.45921826 224.25469017 287.96791267 C224.56467883 317.70596021 213.45886241 342.75251871 192.875 364.01757812 C175.94240591 380.92299706 151.3944454 392.60042557 127.22561646 392.64199829 C125.93951981 392.63660538 125.93951981 392.63660538 124.62744141 392.63110352 C123.70972961 392.63124954 122.79201782 392.63139557 121.84649658 392.63154602 C118.82732745 392.63085197 115.80822079 392.62308335 112.7890625 392.61523438 C110.69013503 392.61336839 108.59120712 392.61194534 106.49227905 392.61094666 C100.97840158 392.60713567 95.46455062 392.5973175 89.95068359 392.58624268 C84.31999063 392.57599804 78.68929336 392.5714425 73.05859375 392.56640625 C62.01821755 392.55569395 50.97786098 392.53863458 39.9375 392.51757812 C39.95844727 393.10249023 39.97939453 393.68740234 40.00097656 394.29003906 C40.08430115 396.94904278 40.13620897 399.60777168 40.1875 402.26757812 C40.22101563 403.18796875 40.25453125 404.10835938 40.2890625 405.05664062 C40.38753564 411.85128714 40.38753564 411.85128714 38.17578125 415.12585449 C35.8109139 416.59628712 34.62819833 417.02245165 31.875 417.03515625 C30.69357422 417.05406921 30.69357422 417.05406921 29.48828125 417.07336426 C28.22564453 417.06121887 28.22564453 417.06121887 26.9375 417.04882812 C26.06480469 417.05265503 25.19210937 417.05648193 24.29296875 417.0604248 C22.45050908 417.06314303 20.60801076 417.05578807 18.765625 417.0390625 C15.94704066 417.0176506 13.13100515 417.03886614 10.3125 417.06445312 C8.52082771 417.06180983 6.72915701 417.05668482 4.9375 417.04882812 C4.09574219 417.05692505 3.25398437 417.06502197 2.38671875 417.07336426 C1.59910156 417.06075562 0.81148437 417.04814697 0 417.03515625 C-0.68964844 417.03197388 -1.37929687 417.0287915 -2.08984375 417.0255127 C-5.23629176 416.21534127 -6.23048176 415.22993496 -8.0625 412.51757812 C-8.55166563 409.08782439 -8.43832448 405.72291188 -8.3125 402.26757812 C-8.29445312 401.33171875 -8.27640625 400.39585937 -8.2578125 399.43164062 C-8.21075673 397.12590797 -8.14503713 394.82226868 -8.0625 392.51757812 C-9.20016815 392.52646057 -10.3378363 392.53534302 -11.50997925 392.54449463 C-22.3059658 392.62608212 -33.10188865 392.685782 -43.89811516 392.72482681 C-49.4466946 392.7455759 -54.99502237 392.77365795 -60.54345703 392.81933594 C-65.91219633 392.86325082 -71.28069573 392.88681016 -76.64960098 392.8970871 C-78.68341974 392.90439748 -80.71722749 392.91866896 -82.75094223 392.94049835 C-111.55250732 393.23695214 -138.42798212 385.67020341 -159.42578125 365.12304688 C-160.73095703 363.83333984 -160.73095703 363.83333984 -162.0625 362.51757812 C-162.77792969 361.87433594 -163.49335938 361.23109375 -164.23046875 360.56835938 C-179.70856938 346.32603525 -189.1504975 324.06087658 -192.0625 303.51757812 C-192.14690752 301.11918777 -192.18029562 298.71871905 -192.17602539 296.31884766 C-192.17617142 295.62546799 -192.17631744 294.93208832 -192.1764679 294.21769714 C-192.17577596 291.94522887 -192.1680175 289.67284443 -192.16015625 287.40039062 C-192.15828951 285.81712895 -192.15686682 284.2338667 -192.15586853 282.65060425 C-192.15206349 278.49794907 -192.14225051 274.34532926 -192.13116455 270.19268799 C-192.12090703 265.94942707 -192.11636163 261.70616039 -192.11132812 257.46289062 C-192.10062633 249.14777029 -192.08357424 240.83267862 -192.0625 232.51757812 C-192.64741211 232.53852539 -193.23232422 232.55947266 -193.83496094 232.58105469 C-196.49396465 232.66437928 -199.15269355 232.71628709 -201.8125 232.76757812 C-202.73289062 232.80109375 -203.65328125 232.83460938 -204.6015625 232.86914062 C-211.25855606 232.96561879 -211.25855606 232.96561879 -214.66992188 231.06445312 C-216.75619724 227.24888079 -216.63498003 223.80386072 -216.59375 219.51757812 C-216.5975769 218.64488281 -216.60140381 217.7721875 -216.60534668 216.87304688 C-216.6080649 215.0305872 -216.60070994 213.18808888 -216.58398438 211.34570312 C-216.56257248 208.52711879 -216.58378801 205.71108328 -216.609375 202.89257812 C-216.60673171 201.10090584 -216.60160669 199.30923514 -216.59375 197.51757812 C-216.60184692 196.67582031 -216.60994385 195.8340625 -216.61828613 194.96679688 C-216.5616813 191.4308939 -216.38327742 189.10424538 -214.66992188 185.97070312 C-210.52226448 183.65919968 -206.46814744 184.09804474 -201.8125 184.26757812 C-200.87664062 184.285625 -199.94078125 184.30367187 -198.9765625 184.32226562 C-196.67082985 184.36932139 -194.36719055 184.435041 -192.0625 184.51757812 C-192.07138245 183.66583511 -192.08026489 182.8140921 -192.0894165 181.9365387 C-192.17021121 173.83329508 -192.2307895 165.73019047 -192.26974869 157.62663364 C-192.29045266 153.46241871 -192.31844719 149.2985419 -192.36425781 145.13452148 C-192.40834027 141.10145275 -192.43176556 137.06870517 -192.44200897 133.03541374 C-192.44929034 131.51152439 -192.46350131 129.98764872 -192.48542023 128.46389961 C-192.839186 102.80493429 -183.98308597 77.28948966 -166.07055664 58.58764648 C-164.73884563 57.22672823 -163.40084386 55.87197409 -162.0625 54.51757812 C-161.09763672 53.44443359 -161.09763672 53.44443359 -160.11328125 52.34960938 C-145.73567332 36.72448666 -121.10962716 25.31517958 -99.9275074 24.42817497 C-97.49739065 24.39522575 -95.0692359 24.3938189 -92.63891602 24.40405273 C-91.26212929 24.40383369 -91.26212929 24.40383369 -89.85752869 24.40361023 C-86.84379661 24.40430319 -83.83012744 24.41206661 -80.81640625 24.41992188 C-78.71890802 24.42178824 -76.62140935 24.42321111 -74.52391052 24.42420959 C-69.01826767 24.42801752 -63.51265142 24.43783303 -58.00701904 24.44891357 C-52.38293823 24.45916483 -46.7588531 24.46371516 -41.13476562 24.46875 C-30.11066543 24.4794569 -19.08658493 24.49651254 -8.0625 24.51757812 C-8.08344727 23.93266602 -8.10439453 23.34775391 -8.12597656 22.74511719 C-8.20930115 20.08611347 -8.26120897 17.42738457 -8.3125 14.76757812 C-8.34601563 13.8471875 -8.37953125 12.92679688 -8.4140625 11.97851562 C-8.51253564 5.18386911 -8.51253564 5.18386911 -6.30078125 1.90930176 C-3.9359139 0.43886913 -2.75319833 0.0127046 0 0 Z M-148.0625 64.51757812 C-148.69414062 65.06800781 -149.32578125 65.6184375 -149.9765625 66.18554688 C-167.42450428 82.3189177 -174.75324307 105.48948231 -176.0625 128.51757812 C-176.18003239 133.02516921 -176.18025546 137.5282394 -176.16015625 142.03710938 C-176.1587413 143.26169357 -176.15732635 144.48627777 -176.15586853 145.74797058 C-176.15032995 149.60869935 -176.1377894 153.46936727 -176.125 157.33007812 C-176.11997705 159.96874915 -176.11541554 162.60742111 -176.11132812 165.24609375 C-176.10038074 171.66994217 -176.08370518 178.0937558 -176.0625 184.51757812 C-175.47235107 184.53216064 -174.88220215 184.54674316 -174.27416992 184.56176758 C-171.59878771 184.63626656 -168.92465108 184.73291808 -166.25 184.83007812 C-164.8568457 184.86391602 -164.8568457 184.86391602 -163.43554688 184.8984375 C-162.54287109 184.93388672 -161.65019531 184.96933594 -160.73046875 185.00585938 C-159.49719849 185.0451355 -159.49719849 185.0451355 -158.23901367 185.08520508 C-155.55781117 185.61783656 -154.64913836 186.30876947 -153.0625 188.51757812 C-152.76402007 191.56620337 -152.64228155 194.40617908 -152.6640625 197.45507812 C-152.66119232 198.33156006 -152.65832214 199.20804199 -152.65536499 200.11108398 C-152.65332402 201.963711 -152.65885622 203.81635955 -152.67138672 205.66894531 C-152.68744016 208.50699991 -152.67153945 211.34363039 -152.65234375 214.18164062 C-152.65432618 215.98112294 -152.65816984 217.78060437 -152.6640625 219.58007812 C-152.65798981 220.43013428 -152.65191711 221.28019043 -152.6456604 222.15600586 C-152.71595309 228.03513938 -152.71595309 228.03513938 -154.29501343 230.23339844 C-156.54790032 231.87024911 -157.96086849 231.94109305 -160.73046875 232.02929688 C-161.62314453 232.06474609 -162.51582031 232.10019531 -163.43554688 232.13671875 C-164.36431641 232.15927734 -165.29308594 232.18183594 -166.25 232.20507812 C-167.19037109 232.23923828 -168.13074219 232.27339844 -169.09960938 232.30859375 C-171.42045393 232.39106031 -173.74092148 232.46021216 -176.0625 232.51757812 C-176.11382396 240.16321903 -176.14849112 247.80881444 -176.17236328 255.45458984 C-176.18233062 258.04770569 -176.19590935 260.64081056 -176.21337891 263.23388672 C-176.42451004 295.41275575 -174.61632457 323.69600155 -152.0625 348.51757812 C-151.51207031 349.14921875 -150.96164063 349.78085937 -150.39453125 350.43164062 C-134.66192847 367.44615918 -111.62751509 375.27280723 -89.0625 376.51757812 C-82.76730447 376.68488933 -76.46863355 376.63463114 -70.171875 376.61523438 C-68.37298624 376.6133653 -66.57409697 376.61194371 -64.77520752 376.61094666 C-60.08012443 376.60716003 -55.38507312 376.59736345 -50.69000244 376.58624268 C-45.88318308 376.5759449 -41.0763585 376.57143125 -36.26953125 376.56640625 C-26.86717367 376.55573706 -17.46483949 376.53870795 -8.0625 376.51757812 C-8.04791748 375.9274292 -8.03333496 375.33728027 -8.01831055 374.72924805 C-7.94381156 372.05386583 -7.84716005 369.37972921 -7.75 366.70507812 C-7.71616211 365.31192383 -7.71616211 365.31192383 -7.68164062 363.890625 C-7.64619141 362.99794922 -7.61074219 362.10527344 -7.57421875 361.18554688 C-7.54803467 360.3633667 -7.52185059 359.54118652 -7.49487305 358.6940918 C-6.96224157 356.01288929 -6.27130866 355.10421649 -4.0625 353.51757812 C-1.01387475 353.21909819 1.82610095 353.09735968 4.875 353.11914062 C5.75148193 353.11627045 6.62796387 353.11340027 7.53100586 353.11044312 C9.38363288 353.10840214 11.23628142 353.11393435 13.08886719 353.12646484 C15.92692179 353.14251829 18.76355227 353.12661757 21.6015625 353.10742188 C23.40104481 353.1094043 25.20052624 353.11324796 27 353.11914062 C27.85005615 353.11306793 28.7001123 353.10699524 29.57592773 353.10073853 C35.45506125 353.17103121 35.45506125 353.17103121 37.65332031 354.75009155 C39.29017099 357.00297845 39.36101492 358.41594662 39.44921875 361.18554688 C39.48466797 362.07822266 39.52011719 362.97089844 39.55664062 363.890625 C39.57919922 364.81939453 39.60175781 365.74816406 39.625 366.70507812 C39.65916016 367.64544922 39.69332031 368.58582031 39.72851562 369.5546875 C39.81098218 371.87553205 39.88013403 374.19599961 39.9375 376.51757812 C50.20496652 376.56425059 60.47240712 376.59962253 70.73995876 376.62120247 C75.5093763 376.63156815 80.27872041 376.6455927 85.0480957 376.66845703 C89.66468574 376.69044632 94.28120588 376.70220074 98.89784431 376.70733261 C100.64498047 376.71098219 102.39211352 376.71810616 104.13921928 376.72903824 C132.76747152 376.90078338 158.17328792 372.29336551 179.9375 352.51757812 C180.56914062 351.96714844 181.20078125 351.41671875 181.8515625 350.84960938 C199.29950428 334.71623855 206.62824307 311.54567394 207.9375 288.51757812 C208.05503239 284.00998704 208.05525546 279.50691685 208.03515625 274.99804688 C208.0337413 273.77346268 208.03232635 272.54887848 208.03086853 271.28718567 C208.02532995 267.4264569 208.0127894 263.56578898 208 259.70507812 C207.99497705 257.0664071 207.99041554 254.42773514 207.98632812 251.7890625 C207.97538074 245.36521408 207.95870518 238.94140045 207.9375 232.51757812 C207.34735107 232.50299561 206.75720215 232.48841309 206.14916992 232.47338867 C203.47378771 232.39888969 200.79965108 232.30223817 198.125 232.20507812 C196.7318457 232.17124023 196.7318457 232.17124023 195.31054688 232.13671875 C194.41787109 232.10126953 193.52519531 232.06582031 192.60546875 232.02929688 C191.37219849 231.99002075 191.37219849 231.99002075 190.11401367 231.94995117 C187.43281117 231.41731969 186.52413836 230.72638678 184.9375 228.51757812 C184.63902007 225.46895288 184.51728155 222.62897717 184.5390625 219.58007812 C184.53619232 218.70359619 184.53332214 217.82711426 184.53036499 216.92407227 C184.52832402 215.07144525 184.53385622 213.2187967 184.54638672 211.36621094 C184.56244016 208.52815634 184.54653945 205.69152586 184.52734375 202.85351562 C184.52932618 201.05403331 184.53316984 199.25455188 184.5390625 197.45507812 C184.53298981 196.60502197 184.52691711 195.75496582 184.5206604 194.87915039 C184.59095309 189.00001687 184.59095309 189.00001687 186.17001343 186.80175781 C188.42290032 185.16490714 189.83586849 185.0940632 192.60546875 185.00585938 C193.49814453 184.97041016 194.39082031 184.93496094 195.31054688 184.8984375 C196.23931641 184.87587891 197.16808594 184.85332031 198.125 184.83007812 C199.06537109 184.79591797 200.00574219 184.76175781 200.97460938 184.7265625 C203.29545393 184.64409594 205.61592148 184.57494409 207.9375 184.51757812 C207.98882396 176.87193722 208.02349112 169.22634181 208.04736328 161.58056641 C208.05733062 158.98745056 208.07090935 156.39434569 208.08837891 153.80126953 C208.29951004 121.6224005 206.49132457 93.3391547 183.9375 68.51757812 C183.38707031 67.8859375 182.83664062 67.25429687 182.26953125 66.60351562 C166.53692847 49.58899707 143.50251509 41.76234902 120.9375 40.51757812 C114.64230447 40.35026692 108.34363355 40.40052511 102.046875 40.41992188 C100.24798624 40.42179095 98.44909697 40.42321254 96.65020752 40.42420959 C91.95512443 40.42799622 87.26007312 40.4377928 82.56500244 40.44891357 C77.75818308 40.45921135 72.9513585 40.463725 68.14453125 40.46875 C58.74217367 40.47941919 49.33983949 40.4964483 39.9375 40.51757812 C39.92291748 41.10772705 39.90833496 41.69787598 39.89331055 42.3059082 C39.81881156 44.98129042 39.72216005 47.65542704 39.625 50.33007812 C39.59116211 51.72323242 39.59116211 51.72323242 39.55664062 53.14453125 C39.52119141 54.03720703 39.48574219 54.92988281 39.44921875 55.84960938 C39.42303467 56.67178955 39.39685059 57.49396973 39.36987305 58.34106445 C38.83724157 61.02226696 38.14630866 61.93093976 35.9375 63.51757812 C32.88887475 63.81605806 30.04889905 63.93779657 27 63.91601562 C26.12351807 63.9188858 25.24703613 63.92175598 24.34399414 63.92471313 C22.49136712 63.92675411 20.63871858 63.9212219 18.78613281 63.90869141 C15.94807821 63.89263796 13.11144773 63.90853868 10.2734375 63.92773438 C8.47395519 63.92575195 6.67447376 63.92190829 4.875 63.91601562 C4.02494385 63.92208832 3.1748877 63.92816101 2.29907227 63.93441772 C-3.58006125 63.86412504 -3.58006125 63.86412504 -5.77832031 62.2850647 C-7.41517099 60.0321778 -7.48601492 58.61920963 -7.57421875 55.84960938 C-7.60966797 54.95693359 -7.64511719 54.06425781 -7.68164062 53.14453125 C-7.70419922 52.21576172 -7.72675781 51.28699219 -7.75 50.33007812 C-7.78416016 49.38970703 -7.81832031 48.44933594 -7.85351562 47.48046875 C-7.93598218 45.1596242 -8.00513403 42.83915664 -8.0625 40.51757812 C-18.32996652 40.47090566 -28.59740712 40.43553372 -38.86495876 40.41395378 C-43.6343763 40.4035881 -48.40372041 40.38956355 -53.1730957 40.36669922 C-57.78968574 40.34470993 -62.40620588 40.33295551 -67.02284431 40.32782364 C-68.76998047 40.32417406 -70.51711352 40.31705009 -72.26421928 40.30611801 C-100.89247152 40.13437287 -126.29828792 44.74179074 -148.0625 64.51757812 Z " fill="#24C485" transform="translate(240.0625,47.482421875)"/>
<path d="M0 0 C3.45262396 1.15087465 3.99094513 1.97204092 6.08203125 4.83984375 C6.67741699 5.64679688 7.27280273 6.45375 7.88623047 7.28515625 C8.52189941 8.16042969 9.15756836 9.03570312 9.8125 9.9375 C11.16393828 11.77058364 12.51683534 13.60259259 13.87109375 15.43359375 C14.55800293 16.36413574 15.24491211 17.29467773 15.95263672 18.25341797 C19.03176638 22.38413686 22.19755444 26.44470817 25.375 30.5 C29.80850942 36.17163096 34.18659839 41.87575403 38.48828125 47.6484375 C41.81508258 52.10181157 45.19191177 56.51724067 48.5625 60.9375 C49.24868408 61.83758789 49.93486816 62.73767578 50.6418457 63.66503906 C54.11371947 68.21807884 57.58758766 72.76959154 61.0625 77.3203125 C68.24641494 86.7331751 75.39089509 96.17272022 82.47216797 105.66308594 C87.35684356 112.19070613 92.35084535 118.62838917 97.43408203 125.00268555 C97.97532715 125.68886963 98.51657227 126.37505371 99.07421875 127.08203125 C99.54432373 127.67218018 100.01442871 128.2623291 100.4987793 128.87036133 C102.55962663 131.79388894 104.23761259 134.88707389 106 138 C94.25624121 138.18552658 82.51283213 138.32759135 70.76790524 138.41449738 C65.31389977 138.45621299 59.86089832 138.51277504 54.4074707 138.60351562 C49.14244823 138.69057101 43.87839007 138.73830142 38.61270332 138.75901794 C36.60596092 138.77377682 34.59927013 138.80259923 32.59293938 138.84584045 C16.85604546 139.17145592 16.85604546 139.17145592 12.25030518 136.26451111 C10.45534189 134.24485307 9.2257999 132.39552966 8 130 C7.27554688 129.07316406 6.55109375 128.14632812 5.8046875 127.19140625 C5.16789062 126.32386719 4.53109375 125.45632813 3.875 124.5625 C0.20704122 119.61386408 -3.50353996 114.70199503 -7.25 109.8125 C-7.80051025 109.09336426 -8.35102051 108.37422852 -8.91821289 107.63330078 C-11.1639286 104.70032002 -13.41086919 101.76828069 -15.65869141 98.83691406 C-16.47152588 97.77682129 -16.47152588 97.77682129 -17.30078125 96.6953125 C-17.84105957 95.99075928 -18.38133789 95.28620605 -18.93798828 94.56030273 C-20.55018571 92.45359149 -22.15605616 90.3421628 -23.76171875 88.23046875 C-25.98386402 85.31216438 -28.24084265 82.42511489 -30.51953125 79.55078125 C-31.63813917 78.11727984 -32.75663291 76.68368931 -33.875 75.25 C-34.40552979 74.59443115 -34.93605957 73.9388623 -35.48266602 73.26342773 C-39.04696112 68.65035067 -39.04696112 68.65035067 -38.83056641 65.65356445 C-37.84718658 62.51177865 -36.46044181 59.98631884 -34.78125 57.15234375 C-34.45122482 56.59124908 -34.12119965 56.03015442 -33.78117371 55.45205688 C-32.69463288 53.60951288 -31.59761516 51.77346496 -30.5 49.9375 C-29.73889904 48.65317415 -28.97824465 47.36858356 -28.21801758 46.08374023 C-22.7604073 36.87868635 -17.23468793 27.71380085 -11.6875 18.5625 C-11.3280127 17.96936005 -10.96852539 17.37622009 -10.59814453 16.7651062 C-7.16311048 11.10457797 -3.69801967 5.49201303 0 0 Z " fill="#28CD83" transform="translate(280,230)"/>
<path d="M0 0 C4.54183589 1.53526847 6.70583936 5.27311346 9.375 9 C10.44371055 10.4595077 11.51408842 11.91779565 12.5859375 13.375 C13.1437793 14.13554687 13.70162109 14.89609375 14.27636719 15.6796875 C17.11791409 19.50490872 20.06009763 23.25018256 23 27 C27.89790093 33.26460135 32.71018565 39.58425988 37.4609375 45.9609375 C41.24361802 51.0245257 45.10800923 56.02008008 49 61 C54.97353994 68.64593428 60.8263235 76.37413534 66.62158203 84.15576172 C67.98927589 85.9856518 69.36593277 87.80840583 70.74609375 89.62890625 C71.17043701 90.18980957 71.59478027 90.75071289 72.03198242 91.32861328 C73.17111609 92.83330178 74.31205379 94.33662405 75.453125 95.83984375 C77 98 77 98 77 99 C26.84 99 -23.32 99 -75 99 C-73.1425252 95.90420867 -71.48617173 93.19552612 -69.3203125 90.390625 C-68.81048828 89.72740234 -68.30066406 89.06417969 -67.77539062 88.38085938 C-66.95844727 87.32608398 -66.95844727 87.32608398 -66.125 86.25 C-64.95045145 84.72401173 -63.77597426 83.19796854 -62.6015625 81.671875 C-62.0024707 80.89521484 -61.40337891 80.11855469 -60.78613281 79.31835938 C-58.01387866 75.72003714 -55.25730725 72.10977964 -52.5 68.5 C-51.41675137 67.08326857 -50.33341779 65.66660208 -49.25 64.25 C-48.71375 63.54875 -48.1775 62.8475 -47.625 62.125 C-41.66666667 54.33333333 -35.70833333 46.54166667 -29.75 38.75 C-29.2132666 38.04810547 -28.6765332 37.34621094 -28.12353516 36.62304688 C-27.04513301 35.21285363 -25.96668284 33.80269711 -24.88818359 32.39257812 C-22.10399904 28.75217473 -19.32076685 25.11104901 -16.5390625 21.46875 C-11.05509021 14.28974586 -5.57162139 7.11141493 0 0 Z " fill="#1FB987" transform="translate(199,269)"/>
<path d="M0 0 C2.5 1.5 2.5 1.5 4 4 C4.791013 8.02098277 4.62153384 10.96411027 2.5 14.5 C-1.03588973 16.62153384 -3.97901723 16.791013 -8 16 C-10.5 14.5 -10.5 14.5 -12 12 C-12.791013 7.97901723 -12.62153384 5.03588973 -10.5 1.5 C-6.96411027 -0.62153384 -4.02098277 -0.791013 0 0 Z " fill="#1FB987" transform="translate(204,192)"/>
</svg>
